<?xml version="1.0" standalone="no"?>
<!DOCTYPE svg PUBLIC "-//W3C//DTD SVG 20010904//EN"
 "http://www.w3.org/TR/2001/REC-SVG-20010904/DTD/svg10.dtd">
<svg version="1.0" xmlns="http://www.w3.org/2000/svg"
 width="700.000000pt" height="700.000000pt" viewBox="0 0 700.000000 700.000000"
 preserveAspectRatio="xMidYMid meet">
<metadata>
Created by potrace 1.14, written by Peter Selinger 2001-2017
</metadata>
<g transform="translate(0.000000,700.000000) scale(0.100000,-0.100000)"
fill="#000000" stroke="none">
<path d="M0 4505 l0 -2495 3500 0 3500 0 0 2495 0 2495 -3500 0 -3500 0 0
-2495z m6551 2082 c19 -12 42 -38 52 -57 16 -33 17 -146 15 -2035 -3 -1909 -4
-2002 -21 -2028 -10 -16 -32 -37 -50 -47 -32 -20 -76 -20 -3048 -20 l-3016 0
-34 23 c-19 12 -42 38 -51 57 -17 33 -18 150 -18 2025 0 1875 1 1992 18 2025
9 19 32 45 51 57 l34 23 3017 0 3017 0 34 -23z"/>
<path d="M660 4505 l0 -1825 2840 0 2840 0 0 1825 0 1825 -2840 0 -2840 0 0
-1825z m3481 1217 c14 -12 22 -29 22 -48 -1 -37 -1086 -2363 -1114 -2386 -18
-15 -42 -18 -156 -18 -163 0 -192 11 -193 71 0 36 1084 2359 1111 2382 18 14
43 17 164 17 124 0 146 -2 166 -18z m-1592 -348 c19 -24 21 -40 21 -183 0
-120 -3 -161 -14 -177 -9 -13 -171 -92 -410 -200 -218 -98 -392 -182 -388
-185 4 -4 180 -86 392 -183 212 -98 393 -186 403 -198 15 -17 17 -42 17 -180
0 -169 -5 -193 -46 -209 -22 -8 -76 14 -382 155 -196 90 -467 215 -602 276
-135 62 -253 119 -262 128 -16 13 -18 37 -18 208 0 190 0 194 23 208 12 8 119
60 237 115 118 55 384 178 590 275 206 96 385 175 397 175 12 1 31 -11 42 -25z
m2571 -254 c332 -154 609 -288 616 -298 10 -12 13 -63 14 -195 0 -173 -1 -179
-22 -198 -26 -23 -1209 -569 -1233 -569 -8 0 -24 9 -35 20 -18 18 -20 33 -20
189 0 146 2 171 18 189 9 11 191 100 405 198 213 98 387 180 387 184 0 3 -178
86 -396 185 -223 101 -399 186 -405 196 -5 10 -9 90 -9 178 0 148 2 163 20
181 11 11 28 20 39 20 10 0 290 -126 621 -280z"/>
<path d="M2050 1255 l0 -475 1445 0 1445 0 0 475 0 475 -1445 0 -1445 0 0
-475z"/>
<path d="M1480 250 l0 -250 2020 0 2020 0 0 250 0 250 -2020 0 -2020 0 0 -250z"/>
</g>
</svg>
