<?xml version="1.0" standalone="no"?>
<!DOCTYPE svg PUBLIC "-//W3C//DTD SVG 20010904//EN"
 "http://www.w3.org/TR/2001/REC-SVG-20010904/DTD/svg10.dtd">
<svg version="1.0" xmlns="http://www.w3.org/2000/svg"
 width="700.000000pt" height="700.000000pt" viewBox="0 0 700.000000 700.000000"
 preserveAspectRatio="xMidYMid meet">
<metadata>
Created by potrace 1.14, written by Peter Selinger 2001-2017
</metadata>
<g transform="translate(0.000000,700.000000) scale(0.100000,-0.100000)"
fill="#000000" stroke="none">
<path d="M4920 5895 l0 -395 -1083 0 c-829 0 -1086 -3 -1095 -12 -9 -9 -12
-69 -12 -210 l0 -198 -987 0 c-659 0 -1001 -4 -1026 -11 -21 -5 -53 -24 -72
-40 -70 -62 -66 36 -63 -1475 l3 -1360 27 -41 c16 -24 44 -49 70 -62 l44 -21
1872 0 c1550 0 1878 2 1905 14 39 16 94 76 104 114 5 15 8 637 8 1382 0 1355
0 1355 -21 1395 -11 22 -40 54 -63 70 l-43 30 -834 3 -834 3 0 164 0 165 1050
0 1050 0 0 -615 0 -615 860 0 860 0 0 1055 0 1055 -860 0 -860 0 0 -395z
m1388 3 c17 -17 15 -44 -4 -62 -14 -14 -75 -16 -523 -16 -496 0 -508 0 -526
20 -15 17 -16 24 -7 45 l12 25 518 0 c390 0 521 -3 530 -12z m-6 -315 c21 -19
23 -44 6 -61 -9 -9 -140 -12 -530 -12 l-518 0 -12 25 c-9 21 -8 28 7 45 18 20
30 20 523 20 456 0 507 -2 524 -17z m8 -322 c14 -27 13 -37 -6 -55 -14 -14
-75 -16 -523 -16 -496 0 -508 0 -526 20 -15 17 -16 24 -7 45 l12 25 519 0
c504 0 521 -1 531 -19z m-8 -308 c24 -22 23 -49 -4 -67 -20 -14 -86 -16 -520
-16 -485 0 -499 1 -518 20 -11 11 -20 25 -20 30 0 6 9 19 20 30 19 19 33 20
522 20 453 0 503 -2 520 -17z m-1851 -23 c19 -10 19 -33 19 -1113 0 -845 -3
-1106 -12 -1115 -15 -15 -3704 -17 -3728 -2 -13 8 -15 144 -18 1105 -2 1086
-2 1095 18 1115 20 20 29 20 1861 20 1249 0 1847 -3 1860 -10z m1860 -304 c8
-17 8 -29 0 -45 -12 -21 -12 -21 -526 -21 -454 0 -515 2 -529 16 -9 8 -16 22
-16 29 0 7 7 21 16 29 14 14 76 16 530 16 l514 0 11 -24z m-3637 -2257 c56
-44 72 -118 36 -176 -67 -111 -240 -64 -240 64 0 82 50 132 131 133 32 0 54
-6 73 -21z"/>
<path d="M810 3810 l0 -1030 1785 0 1785 0 0 1030 0 1030 -1785 0 -1785 0 0
-1030z m1762 645 c9 -21 8 -28 -7 -45 -18 -20 -30 -20 -687 -20 -442 0 -676 4
-689 10 -19 10 -27 59 -12 73 3 4 316 7 695 7 l688 0 12 -25z m-8 -191 c19
-18 20 -28 6 -55 -10 -18 -29 -19 -693 -19 -518 0 -686 3 -695 12 -15 15 -15
51 0 66 9 9 176 12 689 12 603 0 679 -2 693 -16z m1437 -414 c22 -12 25 -52 5
-69 -10 -8 -389 -10 -1422 -9 l-1409 3 -3 30 c-3 19 2 33 14 42 14 11 283 13
1407 13 938 0 1395 -3 1408 -10z m7 -212 c18 -18 14 -56 -7 -68 -13 -7 -470
-10 -1406 -10 -936 0 -1393 3 -1406 10 -19 10 -27 59 -12 73 3 4 639 7 1413 7
1080 0 1409 -3 1418 -12z m0 -200 c15 -15 15 -51 0 -66 -17 -17 -2809 -17
-2826 0 -15 15 -15 51 0 66 17 17 2809 17 2826 0z"/>
<path d="M2572 2288 c-28 -28 -1 -75 37 -63 11 3 23 15 26 26 12 38 -35 65
-63 37z"/>
<path d="M594 5279 c-91 -26 -183 -126 -203 -219 -7 -34 -11 -252 -11 -634 0
-571 0 -583 20 -601 16 -15 25 -16 45 -7 l24 11 3 603 3 604 26 49 c18 35 39
59 74 80 l48 30 366 3 c244 2 369 6 378 14 16 13 17 50 1 66 -15 15 -724 16
-774 1z"/>
<path d="M2167 1973 c-8 -13 -167 -620 -167 -637 0 -14 56 -16 600 -16 473 0
600 3 600 13 0 6 -38 154 -84 327 l-83 315 -431 3 c-237 1 -433 -1 -435 -5z"/>
<path d="M1390 1140 l0 -90 1210 0 1210 0 0 90 0 90 -1210 0 -1210 0 0 -90z"/>
<path d="M482 958 c-15 -15 -15 -51 0 -66 9 -9 344 -12 1445 -12 1406 0 1432
0 1443 19 14 27 13 37 -6 55 -14 14 -159 16 -1443 16 -1096 0 -1430 -3 -1439
-12z"/>
<path d="M367 793 c-11 -11 -8 -58 5 -71 16 -16 949 -17 979 -2 21 12 25 50 7
68 -9 9 -133 12 -498 12 -268 0 -490 -3 -493 -7z"/>
<path d="M2132 788 c-7 -7 -12 -21 -12 -33 0 -12 5 -26 12 -33 17 -17 1999
-17 2016 0 18 18 14 56 -7 68 -30 16 -1993 14 -2009 -2z"/>
<path d="M4282 788 c-7 -7 -12 -21 -12 -33 0 -40 17 -45 165 -45 148 0 165 5
165 45 0 12 -5 26 -12 33 -17 17 -289 17 -306 0z"/>
</g>
</svg>
