<svg width="50" height="50" viewBox="0 0 40 40" fill="none" xmlns="http://www.w3.org/2000/svg">
<path fill-rule="evenodd" clip-rule="evenodd" d="M19.9306 7.08333H20.0693C22.3513 7.08332 24.1595 7.08332 25.6035 7.2302C27.0828 7.38068 28.3178 7.69565 29.3983 8.41753C30.2626 8.99512 31.0048 9.73732 31.5825 10.6017C32.3043 11.6821 32.6193 12.9172 32.7698 14.3966C32.9166 15.8405 32.9166 17.6487 32.9166 19.9307V20.0693C32.9166 22.3513 32.9166 24.1595 32.7698 25.6035C32.6193 27.0828 32.3043 28.3178 31.5825 29.3983C31.0048 30.2627 30.2626 31.0048 29.3983 31.5825C28.3178 32.3043 27.0828 32.6193 25.6035 32.7698C24.1595 32.9167 22.3513 32.9167 20.0693 32.9167H19.9306C17.6486 32.9167 15.8405 32.9167 14.3965 32.7698C12.9171 32.6193 11.6821 32.3043 10.6017 31.5825C9.7373 31.0048 8.9951 30.2627 8.41751 29.3983C7.69563 28.3178 7.38066 27.0828 7.23018 25.6035C7.0833 24.1595 7.0833 22.3513 7.08331 20.0693V19.9307C7.0833 17.6487 7.0833 15.8405 7.23018 14.3966C7.38066 12.9172 7.69563 11.6821 8.41751 10.6017C8.9951 9.73732 9.7373 8.99512 10.6017 8.41753C11.6821 7.69565 12.9171 7.38068 14.3965 7.2302C15.8405 7.08332 17.6486 7.08332 19.9306 7.08333ZM15.6934 17.2933C15.1189 16.9103 14.3429 17.0655 13.9599 17.64C13.577 18.2143 13.7322 18.9905 14.3066 19.3733L18.3821 22.0903C19.3618 22.7435 20.6381 22.7435 21.6178 22.0903L25.6933 19.3733C26.2678 18.9905 26.423 18.2143 26.04 17.64C25.6571 17.0655 24.881 16.9103 24.3066 17.2933L20.2311 20.0103C20.0911 20.1035 19.9088 20.1035 19.7688 20.0103L15.6934 17.2933Z" fill="black"/>
</svg>
