<svg width="40" height="40" viewBox="0 0 50 50" fill="none" xmlns="http://www.w3.org/2000/svg">
<path d="M24.9997 0C11.193 0 0.000152588 11.1931 0.000152588 24.9998C0.000152588 38.8059 11.1929 50 24.9994 50C38.8059 50 49.9998 38.8059 49.9998 24.9998C49.9998 11.1931 38.8066 0 24.9997 0ZM36.2805 31.632C35.3688 32.5432 33.8908 32.5437 32.9788 31.632L24.9356 23.5871L16.8487 31.673C15.9375 32.5842 14.459 32.5847 13.547 31.673C13.0919 31.2165 12.864 30.6195 12.864 30.0222C12.864 29.4249 13.0919 28.8279 13.5479 28.3727L22.9298 18.99C23.0196 18.8503 23.1226 18.7171 23.2444 18.5953C23.7104 18.1293 24.3237 17.905 24.9354 17.9158C25.5457 17.9055 26.1601 18.1293 26.6256 18.5958C26.7479 18.7173 26.8504 18.8505 26.9399 18.99L36.2803 28.3304C37.1916 29.242 37.1923 30.72 36.2805 31.632Z" fill="blue"/>
</svg>
